# xmcd CD database file
#
# Track frame offsets:
#	150
#	30283
#	65622
#	88848
#	113343
#	143346
#	174874
#	189491
#	220436
#	242675
#	285210
#	324804
#
# Disc length: 4399 seconds
#
# Revision: 0
# Processed by: cddbd v1.4PL0 Copyright (c) Steve Scherf et al.
# Submitted via: CDex 1.50beta9
#
DISCID=91112d0c
DTITLE=Thelonious Monk - 85th Birthday Celebration - CD 2: 1957 - 1958: Monk's Mood
DYEAR=2002
DGENRE=Jazz
TTITLE0='Round Mignight
TTITLE1=Monk's Mood
TTITLE2=Off Minor (take 5)
TTITLE3=Ruby, My Dear
TTITLE4=Trinkle, Tinkle
TTITLE5=Straight, No Chaser (take 3)
TTITLE6=I Should Care (take 3)
TTITLE7=I Mean You (take 4)
TTITLE8=Let's Cool One
TTITLE9=Rhythm-a-ning
TTITLE10=Evidence
TTITLE11=Epistrophy
EXTD=YEAR: 2002
EXTT0=
EXTT1=
EXTT2=
EXTT3=
EXTT4=
EXTT5=
EXTT6=
EXTT7=
EXTT8=
EXTT9=
EXTT10=
EXTT11=
PLAYORDER=
